<?xml version="1.0" encoding="utf-8"?>
<!-- Generator: Adobe Illustrator 16.0.0, SVG Export Plug-In . SVG Version: 6.00 Build 0)  -->
<!DOCTYPE svg PUBLIC "-//W3C//DTD SVG 1.1//EN" "http://www.w3.org/Graphics/SVG/1.1/DTD/svg11.dtd">
<svg version="1.1" id="Layer_1" xmlns="http://www.w3.org/2000/svg" xmlns:xlink="http://www.w3.org/1999/xlink" x="0px" y="0px"
	 width="612px" height="792px" viewBox="0 0 612 792" enable-background="new 0 0 612 792" xml:space="preserve">
<g display="none">
	<path display="inline" fill="#FFFFFF" stroke="#FFFFFF" stroke-width="4" stroke-miterlimit="10" d="M89.352,102.24
		c-42.84,0-77.112,34.272-77.112,77.112v433.296c0,42.228,34.272,77.111,77.112,77.111h433.296c42.84,0,77.111-34.884,77.111-77.111
		V179.352c0-42.84-34.271-77.112-77.111-77.112H89.352z"/>
	
		<rect x="85.68" y="175.68" display="inline" fill="#FFFFFF" stroke="#FFFFFF" stroke-miterlimit="10" width="440.64" height="440.64"/>
</g>
<g>
	<path fill="#FFFFFF" d="M526.32,175.68H85.68v440.64h42.84V438.84h397.8L403.92,304.2L526.32,175.68z M297.432,399.672h-4.284
		c0,4.896-3.672,8.568-8.568,8.568h-8.568c-4.896,0-8.568-3.672-8.568-8.568h-4.284c-4.896,0-8.568-3.672-8.568-8.568
		s3.672-8.568,8.568-8.568h34.272c4.896,0,8.568,3.672,8.568,8.568S301.716,399.672,297.432,399.672z M297.432,373.968H263.16
		c-4.896,0-8.568-3.672-8.568-8.568s3.672-8.568,8.568-8.568h34.272c4.896,0,8.568,3.672,8.568,8.568
		S301.716,373.968,297.432,373.968z M324.36,303.588c-4.896,5.508-18.36,22.032-18.36,36.108v0.612c0,4.896-3.672,8.568-8.568,8.568
		H263.16c-4.896,0-8.568-3.672-8.568-8.568c0-14.688-15.3-33.048-19.584-37.332c-9.18-10.404-14.688-24.48-14.688-39.168
		c0-33.048,26.928-59.976,59.976-59.976s59.976,26.928,59.976,59.976C339.66,278.496,334.152,292.572,324.36,303.588z"/>
</g>
</svg>
